<?xml version="1.0" encoding="utf-8"?>
<!-- Generator: Adobe Illustrator 28.0.0, SVG Export Plug-In . SVG Version: 6.00 Build 0)  -->
<svg version="1.1" id="Layer_1" xmlns="http://www.w3.org/2000/svg" xmlns:xlink="http://www.w3.org/1999/xlink" x="0px" y="0px"
	 viewBox="0 0 18.39 16.11" style="enable-background:new 0 0 18.39 16.11;" xml:space="preserve">
<style type="text/css">
	.st0{fill:#FFFFFF;}
</style>
<g>
	<path class="st0" d="M12.64,12.29c-0.17-0.04-0.29-0.15-0.4-0.27c-0.53-0.53-1.06-1.05-1.59-1.58c-0.02-0.02-0.04-0.04-0.07-0.07
		c-1.73,1.19-3.92,0.56-4.91-0.81C4.55,8.01,4.8,6,6.11,4.79c1.3-1.2,3.25-1.3,4.68-0.18c1.39,1.09,1.83,3.22,0.72,4.84
		c0.1,0.09,0.19,0.18,0.28,0.28c0.48,0.48,0.96,0.96,1.44,1.44c0.23,0.23,0.28,0.55,0.12,0.81c-0.1,0.16-0.24,0.26-0.42,0.32
		C12.78,12.32,12.64,12.29,12.64,12.29z M6.26,7.41C6.25,8.66,7.3,9.69,8.54,9.69c1.29,0,2.29-1.1,2.29-2.29
		c0-1.22-1.05-2.3-2.32-2.28C7.27,5.15,6.25,6.16,6.26,7.41z"/>
</g>
</svg>
